# xmcd CD database file
#
# Track frame offsets:
#	182
#	12667
#	24822
#	35327
#	53400
#	66332
#	77702
#	91700
#	102592
#	117160
#	128265
#	140250
#	155737
#	167347
#	180127
#	192580
#	202860
#	223437
#	237372
#
# Disc length: 3412 seconds
#
# Revision: 0
# Processed by: cddbd v1.4PL0 Copyright (c) Steve Scherf et al.
# Submitted via: CDex 1.50Beta6
#
DISCID=f20d5213
DTITLE=Perez Prado - El Rey del Mambo
DYEAR=1900
DGENRE=Merengue
TTITLE0=Mambo N- 8
TTITLE1=Silvando mambo
TTITLE2=Mambo N-5
TTITLE3=Querido mambo
TTITLE4=Lupita
TTITLE5=Patricia
TTITLE6=Maria bonita
TTITLE7=El alacran
TTITLE8=Gwendoline
TTITLE9=Ay cosita linda
TTITLE10=Cerezo rojo
TTITLE11=Mambo a la kenton
TTITLE12=Corazon de melon
TTITLE13=Mambo ni hablar
TTITLE14=La niña popof
TTITLE15=La virgen de la macarena
TTITLE16=El taxista español
TTITLE17=Norma de guadalajara
TTITLE18=El taconazo
EXTD=
EXTT0=
EXTT1=
EXTT2=
EXTT3=
EXTT4=
EXTT5=
EXTT6=
EXTT7=
EXTT8=
EXTT9=
EXTT10=
EXTT11=
EXTT12=
EXTT13=
EXTT14=
EXTT15=
EXTT16=
EXTT17=
EXTT18=
PLAYORDER=
